<?xml version="1.0" encoding="UTF-8" standalone="no"?>
<svg
   xmlns:dc="http://purl.org/dc/elements/1.1/"
   xmlns:cc="http://creativecommons.org/ns#"
   xmlns:rdf="http://www.w3.org/1999/02/22-rdf-syntax-ns#"
   xmlns:svg="http://www.w3.org/2000/svg"
   xmlns="http://www.w3.org/2000/svg"
   xmlns:sodipodi="http://sodipodi.sourceforge.net/DTD/sodipodi-0.dtd"
   xmlns:inkscape="http://www.inkscape.org/namespaces/inkscape"
   version="1.1"
   id="Uploaded to svgrepo.com"
   width="800px"
   height="800px"
   viewBox="0 0 32 32"
   xml:space="preserve"
   fill="#a9a9a9"
   style="--darkreader-inline-fill: #494f52; --darkreader-inline-stroke: #b2aba1;"
   stroke="#a9a9a9"
   stroke-width="0.9279999999999999"
   data-darkreader-inline-fill=""
   data-darkreader-inline-stroke=""
   sodipodi:docname="recruitment.svg"
   inkscape:version="1.0.2 (e86c870879, 2021-01-15)"><metadata
   id="metadata238"><rdf:RDF><cc:Work
       rdf:about=""><dc:format>image/svg+xml</dc:format><dc:type
         rdf:resource="http://purl.org/dc/dcmitype/StillImage" /></cc:Work></rdf:RDF></metadata><defs
   id="defs236" /><sodipodi:namedview
   pagecolor="#ffffff"
   bordercolor="#666666"
   borderopacity="1"
   objecttolerance="10"
   gridtolerance="10"
   guidetolerance="10"
   inkscape:pageopacity="0"
   inkscape:pageshadow="2"
   inkscape:window-width="1366"
   inkscape:window-height="712"
   id="namedview234"
   showgrid="false"
   inkscape:zoom="0.635"
   inkscape:cx="400"
   inkscape:cy="400"
   inkscape:window-x="0"
   inkscape:window-y="0"
   inkscape:window-maximized="1"
   inkscape:current-layer="Uploaded to svgrepo.com" />

<g
   id="SVGRepo_bgCarrier"
   stroke-width="0" />

<g
   id="SVGRepo_tracerCarrier"
   stroke-linecap="round"
   stroke-linejoin="round" />

<g
   id="SVGRepo_iconCarrier"
   style="fill:#a9a9a9"
   transform="matrix(1.1328651,0,0,1.1328651,-2.1258419,-2.1258419)"> <style
   type="text/css"
   id="style226"> .bentblocks_een{fill:#a9a9a9;} </style>

<style
   class="darkreader darkreader--sync"
   media="screen"
   id="style228" /> <path
   class="bentblocks_een"
   d="M 26,8 H 21 V 6 C 21,4.9 20.1,4 19,4 H 13 C 11.9,4 11,4.9 11,6 V 8 H 6 C 4.9,8 4,8.9 4,10 v 16 c 0,1.1 0.9,2 2,2 h 20 c 1.1,0 2,-0.9 2,-2 V 10 C 28,8.9 27.1,8 26,8 Z M 13,6 h 6 v 2 h -6 z m 4,4 v 6 h -2 v -6 z m 9,16 H 6 v -3 h 20 z m 0,-5 H 6 V 10 h 7 v 6 c 0,1.1 0.9,2 2,2 h 2 c 1.1,0 2,-0.9 2,-2 v -6 h 7 z"
   id="path230"
   style="fill:#a9a9a9" /> </g>

</svg>
