<?xml version="1.0" encoding="UTF-8" standalone="no"?>
<svg
   xmlns:dc="http://purl.org/dc/elements/1.1/"
   xmlns:cc="http://creativecommons.org/ns#"
   xmlns:rdf="http://www.w3.org/1999/02/22-rdf-syntax-ns#"
   xmlns:svg="http://www.w3.org/2000/svg"
   xmlns="http://www.w3.org/2000/svg"
   xmlns:sodipodi="http://sodipodi.sourceforge.net/DTD/sodipodi-0.dtd"
   xmlns:inkscape="http://www.inkscape.org/namespaces/inkscape"
   fill="#a9a9a9"
   width="800px"
   height="800px"
   viewBox="0 0 100 100"
   xml:space="preserve"
   style="--darkreader-inline-fill: #494f52; --darkreader-inline-stroke: #b2aba1;"
   stroke="#a9a9a9"
   data-darkreader-inline-fill=""
   data-darkreader-inline-stroke=""
   stroke-width="0.001"
   version="1.1"
   id="svg97"
   sodipodi:docname="skill.svg"
   inkscape:version="1.0.2 (e86c870879, 2021-01-15)"><metadata
   id="metadata103"><rdf:RDF><cc:Work
       rdf:about=""><dc:format>image/svg+xml</dc:format><dc:type
         rdf:resource="http://purl.org/dc/dcmitype/StillImage" /></cc:Work></rdf:RDF></metadata><defs
   id="defs101" /><sodipodi:namedview
   pagecolor="#ffffff"
   bordercolor="#666666"
   borderopacity="1"
   objecttolerance="10"
   gridtolerance="10"
   guidetolerance="10"
   inkscape:pageopacity="0"
   inkscape:pageshadow="2"
   inkscape:window-width="1366"
   inkscape:window-height="712"
   id="namedview99"
   showgrid="false"
   inkscape:zoom="0.635"
   inkscape:cx="400"
   inkscape:cy="400"
   inkscape:window-x="0"
   inkscape:window-y="0"
   inkscape:window-maximized="1"
   inkscape:current-layer="svg97" />

<g
   id="SVGRepo_bgCarrier"
   stroke-width="0" />

<g
   id="SVGRepo_tracerCarrier"
   stroke-linecap="round"
   stroke-linejoin="round" />

<g
   id="SVGRepo_iconCarrier"
   transform="matrix(1.548003,0,0,1.548003,-27.330776,-27.400148)"
   style="fill:#a9a9a9"> <g
   id="g94"
   style="fill:#a9a9a9"> <path
   d="M 77.3,55.7 70,44.9 V 44 C 70,30.8 59.2,20 46,20 44.1,20 42.2,20.2 40.3,20.7 29.7,23.1 22,32.9 22,44 c 0,4.9 1.2,9.3 3.6,12.7 4.2,6 7,10.8 5.3,17.3 -0.4,1.5 -0.1,3 0.9,4.2 0.9,1.2 2.2,1.8 3.7,1.8 h 19.7 c 2.3,0 4.3,-1.6 4.7,-3.8 0.1,-0.4 0.2,-0.8 0.2,-1.2 0.2,-1.2 1.2,-2 2.4,-2 h 1.4 C 66.1,73 68,71.7 68.6,69.6 69.2,67.3 70,64 70.1,60 h 5.2 c 0.9,0 1.8,-0.8 2.2,-1.6 0.4,-0.8 0.3,-2.1 -0.2,-2.7 z M 61.4,42 c -0.8,1.3 -2.4,2 -4.7,2 -12.3,0 -13.2,9 -13.2,13.3 0,2 -1.6,3.7 -3.6,3.7 h -0.3 c -1.7,0 -3.1,-1.2 -3.5,-2.9 -0.4,-1.8 -1.6,-2.8 -2.8,-3.7 -0.8,-0.6 -1.6,-1.2 -2,-2.1 -1.1,-2.3 -2.2,-5 -2.2,-8.4 0,-7.8 5.4,-14.6 12.7,-16.3 1.4,-0.3 2.7,-0.5 4.1,-0.5 6.8,0 12.9,4.1 15.5,10.3 0.1,0.3 1.2,2.7 0,4.6 z"
   id="path92"
   style="fill:#a9a9a9" /> </g> </g>

</svg>
